# xmcd
#
# Track frame offsets:
#	150
#	12897
#	31580
#	43255
#	62745
#	76055
#	94577
#	108525
#	123320
#	138867
#	150620
#	163487
#
# Disc length: 2365 seconds
#
# Revision: 1
# Processed by: cddbd v1.4PL0 Copyright (c) Steve Scherf et al.
# Submitted via: audiograbber 1.80
#
DISCID=90093b0c
DTITLE=Chez MULATE'S - Chank A Chank
DYEAR=1900
DGENRE=
TTITLE0=Mamou Prairie Band - One Step A Mc Gee
TTITLE1=Lagniappe - Saturday Night Waltz
TTITLE2=Lagniappe - Roll On Wagon Whee
TTITLE3=Belton Richard - Where Will I Find Another You
TTITLE4=Jay Cormier and Cajun Country - Boscop Stomp
TTITLE5=Steve Riley and The Mamou Playboys - Enterre Moi Pas
TTITLE6=Jay Cormier and Cajun Country - Coeur Casser
TTITLE7=Kevin Naquin and Ossun Playboys -  Les Flammes D'enfer
TTITLE8=Paul Daigle and Cajun Gold - Ta Petite Robe Courte
TTITLE9=Basin Brothers - Good Day Two Step
TTITLE10=Jimmy Thibodeaux - She Said She Loved Me ( But She Lied )
TTITLE11=Horace Trahan - Blues Francais
EXTD=Stielrichtung Country - Cajun
EXTT0=
EXTT1=
EXTT2=
EXTT3=
EXTT4=
EXTT5=
EXTT6=
EXTT7=
EXTT8=
EXTT9=
EXTT10=
EXTT11=
PLAYORDER=
